<svg xmlns="http://www.w3.org/2000/svg" width="36" height="38" stroke="#000" stroke-linecap="round" stroke-linejoin="round" fill="#ggg" fill-rule="evenodd">
    <defs>
        <linearGradient id="A" x1="38.05%" y1="-5.66%" x2="58.33%" y2="116.12%"><stop offset="0%" stop-color="#ffe700"/>
            <stop offset="53%" stop-color="#ff7600"/>
            <stop offset="100%" stop-color="#ff0052"/>
        </linearGradient></defs>
    <path d="M33.0513 17.6333l-4.1726-4.878-5.9149-6.9388c-.0793-.108-.1679-.2126-.2654-.3133a.334.334 0 0 0-.0332-.0302L17.8554 0s-1.1906 1.6486-4.4885 5.421c-.0358.0255-.0685.0529-.0978.0822-.1126.1198-.2135.2446-.302.3737l-.5238.5891c-3.97 4.4824-9.4066 11.0633-9.4921 11.1673-3.6615 3.8672-3.9356 8.8202-.7123 12.8703.0401.0508.082.1028.1257.1524s.0768.0943.1152.1403c.7138.8394 1.5663 1.6183 2.5402 2.3211h0q.4033.289.8293.5587l.5482.3689c6.9454 4.0893 17.215 3.9155 23.8639-.404s0 0 0 0l.7175-.5213c.9754-.7033 1.8291-1.4831 2.5437-2.3234l.1153-.1403c.0366-.0471.0855-.1016.1239-.1524.3343-.4164.6328-.8461.8939-1.287 2.251-3.8089 1.6489-8.1417-1.6097-11.5833zm-4.8378-1.6679c-.1414 1.276-1.1348 2.6779-2.9487 4.1764-1.7371-1.5723-3.8408-3.0999-6.0371-4.596 2.1229-1.61 4.2616-3.8125 4.5898-6.304l3.5318 4.1365h0c.4627.6422.9882 1.478.8642 2.5871zM8.7736 13.1835l.1484-.2032.1117-.1523 1.3565-1.5965.1746-.1875c.0381-.0405.0691-.084.0925-.1295l1.4875-1.732c.302 2.5182 2.4564 4.7437 4.5985 6.3681-2.1927 1.4901-4.3 3.0237-6.0388 4.596-1.814-1.4985-2.8056-2.9027-2.9488-4.1764-.1326-1.2361.5325-2.1323 1.0179-2.7867zm15.2831 7.8848c-.9201.6604-1.8995 1.3135-2.8457 1.9436-1.1017.7331-2.2068 1.4696-3.2229 2.2255-1.016-.7559-2.1229-1.4924-3.2228-2.2255l-2.8475-1.9436c1.711-1.5724 3.8409-3.1218 6.0703-4.6336 2.2242 1.5118 4.3611 3.0648 6.0686 4.6336zm-13.0938.9325c.8729.6241 1.7912 1.2349 2.6798 1.8251 1.147.7633 2.2696 1.5095 3.2682 2.2569-2.9155 2.4045-4.588 5.0388-2.0321 8.319-4.0975-2.0561-6.285-4.1534-6.6779-6.3729-.3526-1.9908.8014-4.0179 2.755-6.0281zm7.0217 13.5585c-2.6309-2.2013-3.3398-4.1607-2.2346-6.1358.4783-.8538 1.264-1.6764 2.2346-2.4904.9707.814 1.7459 1.6366 2.233 2.4904 1.1103 1.9787.3998 3.9382-2.233 6.1358zm1.0842-9.4801c.9986-.7475 2.1195-1.4937 3.2665-2.2569l2.6798-1.8251c1.9536 2.0101 3.1094 4.0373 2.762 6.0281-.3859 2.2194-2.5786 4.3167-6.6779 6.3729 2.5612-3.2766.8887-5.9109-2.0269-8.3154zM17.9585 2.442l3.3258 3.8268.1135.1331c.4978.7354.732 1.5433.6826 2.3549-.0803 1.8868-1.4875 3.9188-4.0958 5.9084-2.603-1.9896-4.0154-4.0216-4.0905-5.9084-.0479-.7902.1715-1.5772.6408-2.298l3.4236-4.0168zM7.4432 33.0339l-.3596-.2419-.0314-.0206a14.486 14.486 0 0 1-.7141-.4838l-.0366-.0266c-.8756-.6312-1.642-1.3311-2.2836-2.0851l-.0157-.0206-.0733-.0871a.392.392 0 0 0-.0315-.0387l-.0907-.1113v-.0109c-2.9027-3.6504-2.6541-8.1134.6459-11.5978.021-.0218.0437-.0472.0629-.0702l1.6585-1.9957c.2148 1.3099 1.1558 2.9149 3.5563 4.838-2.3237 2.3065-3.7204 4.6808-3.3014 7.0998.4469 2.5678 2.8702 4.9408 7.3779 7.2098-2.284-.4252-4.4048-1.1937-6.2117-2.2509zm25.5731-4.2853c-.2346.3964-.5028.783-.803 1.1575l-.0105.0121a3.666 3.666 0 0 1-.0891.1113.411.411 0 0 0-.0331.0387c-.0227.029-.0472.058-.0716.0871l-.0157.0206c-.6431.7548-1.4106 1.4554-2.2871 2.0875l-.0157.0121-.6739.4838c-1.9417 1.2593-4.3039 2.1652-6.8751 2.6368 4.5235-2.2728 6.9572-4.6506 7.4041-7.2244.4208-2.4118-.9777-4.7884-3.2892-7.0986 2.3901-1.911 3.3329-3.5076 3.5528-4.8175l1.7127 2.0078c.014.017.0279.0327.0436.0484 2.9371 3.1015 3.4798 7.0065 1.4508 10.4393z"
          stroke="none" fill="url(#A)" fill-rule="nonzero"/>
</svg>