<svg xmlns="http://www.w3.org/2000/svg" width="36" height="38" stroke="#000" stroke-linecap="round"
     stroke-linejoin="round" fill="#fff" fill-rule="evenodd">
    <defs>
        <linearGradient id="A" x1="38.05%" y1="-5.66%" x2="58.33%" y2="116.12%">
            <stop offset="0%" stop-color="#ffe700"/>
            <stop offset="53%" stop-color="#ff7600"/>
            <stop offset="100%" stop-color="#ff0052"/>
        </linearGradient>
    </defs>
    <path d="M27.8706 16.7503l-3.0139-4.219-4.2715-6.0008c-.0572-.093-.1214-.1836-.1921-.2713a.365.365 0 0 0-.0239-.0262L16.8954 1.5s-.8598 1.4256-3.2415 4.688a.634.634 0 0 0-.0708.0712c-.0809.1038-.1538.2116-.218.3237l-.3779.5091c-2.8678 3.8768-6.7942 9.5683-6.8559 9.6583-2.6442 3.3449-2.8422 7.6282-.5144 11.1313.029.0438.0595.0888.0908.1314s.0556.0822.0832.1213c.5155.7264 1.1312 1.4003 1.8349 2.0081h0q.2913.25.5987.4827l.3958.3189c5.0165 3.5373 12.4332 3.3865 17.2351-.349s0 0 0 0l.5178-.4513c.705-.6083 1.321-1.2821 1.8375-2.0094l.0832-.1213.0898-.1314c.241-.3604.4569-.7321.6458-1.113 1.6252-3.2942 1.1909-7.0417-1.1633-10.0183zm-3.4944-1.4423c-.102 1.1034-.8195 2.3163-2.1294 3.6118-1.2549-1.3593-2.774-2.6809-4.3601-3.975 1.5336-1.392 3.0781-3.2975 3.3148-5.452l2.5507 3.5775h0c.3339.5552.7134 1.278.624 2.2377zm-14.0398-2.4064l.1075-.1753.0802-.1319.98-1.3809.1262-.1615c.0271-.0355.0496-.073.0669-.1125l1.0737-1.498c.2182 2.1782 1.7743 4.1027 3.3215 5.5081-1.5838 1.2881-3.1052 2.6147-4.3616 3.9744-1.3102-1.2959-2.0259-2.5101-2.1292-3.6118-.0963-1.0691.3845-1.8443.7348-2.4106zm11.0382 6.8197c-.6646.5714-1.3719 1.1355-2.0556 1.6806-.7957.6341-1.5937 1.2716-2.3273 1.9253-.7337-.6537-1.5335-1.2912-2.3282-1.9253l-2.0559-1.6806c1.2353-1.3604 2.7734-2.6998 4.3841-4.0076 1.6064 1.3078 3.1495 2.6508 4.3829 4.0076zm-9.4572.8065c.6305.5401 1.294 1.0679 1.9354 1.5781.8288.6603 1.6395 1.3055 2.3603 1.9519-2.1056 2.0795-3.3132 4.3578-1.4673 7.195-2.9592-1.7781-4.5393-3.5924-4.8229-5.5119-.2546-1.7218.5789-3.4749 1.9895-5.2131zm5.0713 11.7265c-1.8999-1.9043-2.4119-3.5987-1.6137-5.3068.3453-.7388.913-1.4504 1.6137-2.1544.7009.704 1.2615 1.4156 1.6129 2.1544.8022 1.7109.2887 3.4062-1.6129 5.3068zm.7832-8.1991c.7214-.6465 1.5305-1.2917 2.3593-1.9519l1.9357-1.5791c1.4101 1.7391 2.2455 3.4923 1.9942 5.2141-.2781 1.9194-1.8625 3.7329-4.8227 5.5119 1.8499-2.8346.6416-5.1129-1.4641-7.1924zM16.9704 3.612l2.4018 3.3098.0817.1151c.3597.6359.5285 1.3343.4927 2.0369-.0578 1.6318-1.0738 3.3888-2.9579 5.1094-1.8795-1.7206-2.8996-3.4776-2.9544-5.1094-.0342-.6842.1241-1.3642.4628-1.988l2.4733-3.4738zm-7.595 26.4579l-.2597-.2089-.0224-.0186c-.1757-.1332-.3476-.2725-.5156-.4178l-.0264-.0236c-.6328-.5452-1.1859-1.1511-1.6494-1.8031l-.0116-.0176-.0529-.0751c-.0067-.0116-.0146-.0235-.0225-.0337l-.0658-.0963v-.0096c-2.0963-3.1567-1.9166-7.0167.4666-10.0301.0154-.0188.0316-.0412.0457-.0612l1.1975-1.7257c.1554 1.1329.8349 2.5209 2.5685 4.184-1.6784 1.9946-2.6871 4.0488-2.3844 6.1408.3228 2.2208 2.0729 4.2728 5.3283 6.2348-1.6491-.3672-3.1812-1.0317-4.4861-1.9459zm18.4693-3.7063a8.915 8.915 0 0 1-.5794 1.0015l-.0082.0101a2.966 2.966 0 0 1-.0635.0963c-.0093.0102-.0168.0221-.0248.0337-.0158.025-.0334.05-.0516.0751l-.011.0176c-.4641.6528-1.0191 1.2589-1.6519 1.8055l-.0116.0102-.4861.4187c-1.4021 1.0893-3.1081 1.8725-4.9652 2.2808 3.2667-1.9658 5.0244-4.0226 5.3469-6.2484.3041-2.0858-.7063-4.1414-2.3757-6.1396 1.7261-1.6523 2.407-3.0336 2.5665-4.1665l1.2368 1.7368c.01.015.02.0286.0315.0414 2.1212 2.6825 2.5136 6.0605 1.0473 9.0293z"
          stroke="none" fill="url(#A)" fill-rule="nonzero"/>
</svg>