<svg xmlns="http://www.w3.org/2000/svg" xmlns:xlink="http://www.w3.org/1999/xlink" viewBox="0 0 206.22 305.93"><defs><style>.cls-1{fill:url(#linear-gradient);}</style><linearGradient id="linear-gradient" x1="78.44" y1="-17.31" x2="120.27" y2="355.21" gradientUnits="userSpaceOnUse"><stop offset="0" stop-color="#ffe700"/><stop offset="0.53" stop-color="#ff7600"/><stop offset="1" stop-color="#ff0052"/>
</linearGradient>
</defs>
    <g id="Layer_2">
        <g id="Layer_1-2">
            <path class="cls-1" d="M189.3,145.79s-11.05-18.63-23.9-40.33C153,84.56,139,60.81,131.52,48.09A24.93,24.93,0,0,0,130,45.5a2.35,2.35,0,0,0-.19-.25C115.73,21.22,102.26,0,102.26,0S95.44,13.63,76.55,44.82a5.33,5.33,0,0,0-.56.68,26.33,26.33,0,0,0-1.73,3.09c-1,1.59-2,3.2-3,4.87-22.74,37.06-53.88,91.47-54.37,92.33A103.18,103.18,0,0,0,12.81,252.2c.23.42.47.85.72,1.26s.44.78.66,1.16a103.71,103.71,0,0,0,14.55,19.19v0q2.31,2.39,4.75,4.62l3.14,3.05a102.65,102.65,0,0,0,136.69-3.34s0,0,0,0c2.56-2.66,4.11-4.31,4.11-4.31A103.71,103.71,0,0,0,192,254.62c.22-.38.45-.77.66-1.16s.49-.84.71-1.26a100.07,100.07,0,0,0,5.12-10.64,103.27,103.27,0,0,0-9.22-95.77ZM161.59,132c-.81,10.55-6.5,22.14-16.89,34.53-9.95-13-22-25.63-34.58-38,12.16-13.31,24.41-31.52,26.29-52.12,7.73,13.09,15.84,26.78,20.23,34.2l0,0C159.29,115.92,162.3,122.83,161.59,132ZM50.24,109l.85-1.68.64-1.26c2.53-4.31,5.14-8.74,7.77-13.2.63-1,1-1.52,1-1.55a5.08,5.08,0,0,0,.53-1.07c2.84-4.8,5.7-9.61,8.52-14.32,1.73,20.82,14.07,39.22,26.34,52.65-12.56,12.32-24.63,25-34.59,38-10.39-12.39-16.07-24-16.89-34.53C43.65,121.82,47.46,114.41,50.24,109Zm87.54,65.19c-5.27,5.46-10.88,10.86-16.3,16.07-6.31,6.06-12.64,12.15-18.46,18.4-5.82-6.25-12.16-12.34-18.46-18.4-5.43-5.21-11-10.61-16.31-16.07,9.8-13,22-25.81,34.77-38.31C115.76,148.38,128,161.22,137.78,174.19Zm-75,7.71c5,5.16,10.26,10.21,15.35,15.09,6.57,6.31,13,12.48,18.72,18.66-16.7,19.88-26.28,41.66-11.64,68.78-23.47-17-36-34.34-38.25-52.69C44.94,215.28,51.55,198.52,62.74,181.9ZM103,294c-15.07-18.2-19.13-34.4-12.8-50.73,2.74-7.06,7.24-13.86,12.8-20.59,5.56,6.73,10,13.53,12.79,20.59C122.15,259.63,118.08,275.83,103,294Zm6.21-78.38c5.72-6.18,12.14-12.35,18.71-18.66,5.09-4.88,10.32-9.93,15.35-15.09,11.19,16.62,17.81,33.38,15.82,49.84-2.21,18.35-14.77,35.69-38.25,52.69C135.51,257.31,125.93,235.53,109.23,215.65ZM102.85,20.19C108.09,28.68,115,40,121.9,51.83l.65,1.1a41.72,41.72,0,0,1,3.91,19.47C126,88,117.94,104.8,103,121.25,88.09,104.8,80,88,79.57,72.4a41.94,41.94,0,0,1,3.67-19C92,39,98.41,28,102.85,20.19ZM42.62,273.12c-.73-.72-1.42-1.38-2.06-2l-.18-.17c-1.35-1.24-2.73-2.58-4.09-4l-.21-.22A93.13,93.13,0,0,1,23,249.49l-.09-.17-.42-.72a3.3,3.3,0,0,0-.18-.32l-.52-.92,0-.09a93,93,0,0,1,3.7-95.89c.12-.18.25-.39.36-.58s3.78-6.62,9.5-16.5c1.23,10.83,6.62,24.1,20.37,40C42.41,193.37,34.41,213,36.81,233c2.56,21.23,16.44,40.85,42.26,59.61A92.24,92.24,0,0,1,43.49,274ZM189.1,237.69a90.31,90.31,0,0,1-4.6,9.57l-.06.1c-.18.34-.35.64-.51.92a3.37,3.37,0,0,0-.19.32c-.13.24-.27.48-.41.72l-.09.17a93.57,93.57,0,0,1-13.1,17.26l-.09.1s-1.47,1.56-3.86,4a92.11,92.11,0,0,1-39.38,21.8c25.91-18.79,39.85-38.45,42.41-59.73,2.41-19.94-5.6-39.59-18.84-58.69,13.69-15.8,19.09-29,20.35-39.83L180.54,151c.08.14.16.27.25.4a93.06,93.06,0,0,1,8.31,86.31Z"/>
        </g>
    </g>
</svg>